<svg id="Layer_1" data-name="Layer 1" xmlns="http://www.w3.org/2000/svg" viewBox="0 0 128 128"><defs><style>.cls-1{fill:#f4f4f4;}.cls-2{fill:#2a2a2a;}.cls-3{fill:#649a3d;}</style></defs><rect class="cls-1" width="128" height="128"/><path class="cls-2" d="M105.56,7.73h-1.51V6.88H108v.85h-1.51v4.65h-.89Zm3.12-.85h1.38l1.3,3.91h0l1.31-3.91h1.39v5.5h-.88V8h0l-1.5,4.42h-.62L109.58,8h0v4.42h-.92ZM91.05,5c-5.52,0-9.13,3.51-9.13,8.94V45.09c-5.71-6.19-14.34-9.58-24.33-9.58-23.25,0-43.65,20.5-43.65,43.88S34.34,123,57.63,123a37.18,37.18,0,0,0,25.1-10.57c1,5.69,4.45,8.81,9.79,8.81,4.41,0,7.62-3.39,7.62-8.07V13.94C100.14,8.6,96.49,5,91,5M57.45,103.7A24.37,24.37,0,1,1,81.79,79.31v0A24.37,24.37,0,0,1,57.45,103.7"/><path class="cls-3" d="M57.45,62.72A16.63,16.63,0,1,0,74.06,79.36h0a16.61,16.61,0,0,0-16.6-16.63h0"/></svg>